<?xml version="1.0" standalone="no"?><!DOCTYPE svg PUBLIC "-//W3C//DTD SVG 1.1//EN" "http://www.w3.org/Graphics/SVG/1.1/DTD/svg11.dtd"><svg t="1743470108339" class="icon" viewBox="0 0 1024 1024" version="1.1" xmlns="http://www.w3.org/2000/svg" p-id="5139" xmlns:xlink="http://www.w3.org/1999/xlink" width="256" height="256"><path d="M698.9 283.7H145.6c-12.2 0-24 4.9-32.6 13.5-8.6 8.6-13.5 20.4-13.5 32.6v553.3c0 25.5 20.6 46.1 46.1 46.1h553.3c25.5 0 46.1-20.6 46.1-46.1V329.8c0-25.5-20.6-46.1-46.1-46.1zM681 865.2H163.4V347.7H681v517.5z" p-id="5140" fill="#ffffff"></path><path d="M864.5 687.5h58.2v58.2h-58.2zM767.5 687.5h58.2v58.2h-58.2zM277.2 201.1h58.2v58.2h-58.2zM277.2 100.2h58.2v58.2h-58.2zM801.8 158.4h-58.2v-58.2h58.2v58.2z m-116.5 0h-58.2v-58.2h58.2v58.2z m-116.4 0h-58.2v-58.2h58.2v58.2z m-116.5 0h-58.2v-58.2h58.2v58.2zM864.5 100.2h58.2v58.2h-58.2zM922.7 624.8h-58.2v-58.2h58.2v58.2z m0-116.5h-58.2v-58.2h58.2v58.2z m0-116.4h-58.2v-58.2h58.2v58.2z m0-116.5h-58.2v-58.2h58.2v58.2z" p-id="5141" fill="#ffffff"></path></svg>