<?xml version="1.0" standalone="no"?><!DOCTYPE svg PUBLIC "-//W3C//DTD SVG 1.1//EN" "http://www.w3.org/Graphics/SVG/1.1/DTD/svg11.dtd"><svg t="1742094213696" class="icon" viewBox="0 0 1024 1024" version="1.1" xmlns="http://www.w3.org/2000/svg" p-id="41003" xmlns:xlink="http://www.w3.org/1999/xlink" width="256" height="256"><path d="M939.438 259.99h-19.82a84.252 84.252 0 0 0-23.084 3.23c-7.48-39.031-41.858-68.618-83.036-68.618H793.68c-46.631 0-84.566 37.938-84.566 84.564v136.499h-394.22V262.45c0-46.63-37.938-84.564-84.564-84.564h-19.818c-41.18 0-75.558 29.587-83.038 68.618a84.215 84.215 0 0 0-23.084-3.231H84.571C37.94 243.273 0.002 281.21 0.002 327.84v351.6c0 46.632 37.938 84.566 84.567 84.566h19.817a84.368 84.368 0 0 0 23.087-3.232c7.48 39.028 41.858 68.62 83.036 68.62h19.817c46.629 0 84.564-37.938 84.564-84.566V622.025h394.212v139.521c0 46.631 37.938 84.568 84.567 84.568h19.818c41.178 0 75.56-29.591 83.04-68.622a84.215 84.215 0 0 0 23.084 3.233h19.815c46.626 0 84.568-37.938 84.568-84.566V344.557c0.008-46.629-37.929-84.567-84.556-84.567zM125.944 679.439c0 11.889-9.671 21.56-21.558 21.56H84.569c-11.889 0-21.558-9.671-21.558-21.56v-351.6c0-11.889 9.669-21.558 21.558-21.558h19.817c11.887 0 21.558 9.669 21.558 21.558v351.6z m125.942 65.391c0 11.889-9.671 21.561-21.558 21.561h-19.817c-11.889 0-21.558-9.672-21.558-21.561V262.448c0-11.89 9.671-21.561 21.558-21.561h19.818c11.887 0 21.558 9.671 21.558 21.561l-0.001 482.382z m457.227-185.812h-394.22V478.67h394.215v80.346h0.005v0.002zM835.051 761.55c0 11.893-9.667 21.563-21.56 21.563h-19.818c-11.884 0-21.56-9.671-21.56-21.563V279.168c0-11.89 9.671-21.561 21.56-21.561h19.818c11.889 0 21.56 9.671 21.56 21.561V761.55z m125.942-65.391c0 11.885-9.671 21.556-21.559 21.556h-19.819c-11.888 0-21.559-9.671-21.559-21.556V344.557c0-11.887 9.667-21.558 21.559-21.558h19.819c11.888 0 21.559 9.671 21.559 21.558v351.602z" fill="#07c160" p-id="41004"></path></svg>