<?xml version="1.0" standalone="no"?><!DOCTYPE svg PUBLIC "-//W3C//DTD SVG 1.1//EN" "http://www.w3.org/Graphics/SVG/1.1/DTD/svg11.dtd"><svg t="1742093905886" class="icon" viewBox="0 0 1024 1024" version="1.1" xmlns="http://www.w3.org/2000/svg" p-id="15171" xmlns:xlink="http://www.w3.org/1999/xlink" width="256" height="256"><path d="M920.531975 812.429397l-161.968905-295.974945c30.758538-46.384423 48.797379-101.796454 48.797379-161.731498 0-161.322176-131.211391-293.090245-292.777113-293.090245-161.564699 0-293.180296 131.768069-293.180296 293.090245 0 57.468876 16.802688 111.246687 45.099151 156.403143L102.073258 812.429397c-4.516874 7.380084-3.697205 16.83134 1.639337 23.807219 5.337565 6.560416 14.343683 9.854439 22.543436 7.381108l134.088928-34.884508 49.616024 136.284943c2.877537 7.795547 10.257621 13.550621 18.87386 13.95278 0.403183 0.418532 0.806365 0.418532 1.64036 0.418532 7.783267 0 15.176654-4.517897 18.859533-11.493775l161.969928-295.974945 161.965835 295.974945c3.697205 6.975878 11.07729 11.493775 18.86158 11.493775 0.416486 0 1.236154 0 1.639337-0.418532 8.618285-0.402159 15.997346-6.157233 18.874883-13.95278l49.613978-136.284943 133.673465 34.884508c8.602935 2.473331 17.21815-0.820692 22.556739-7.381108C923.812695 829.260737 924.632363 819.809481 920.531975 812.429397M514.582313 105.140619c137.368624 0 249.317299 112.068402 249.317299 249.582335 0 137.924279-111.947651 249.998821-249.317299 249.998821-137.771807 0-249.720482-112.074541-249.720482-249.998821C264.861832 217.207997 376.810506 105.140619 514.582313 105.140619M334.157058 885.08823l-39.775912-109.614513c-3.683902-10.658757-15.163351-16.412808-25.838482-13.536294l-104.554264 27.087938 131.212414-239.72892c43.472094 49.254797 103.346763 83.33294 171.002652 94.825692L334.157058 885.08823zM754.045173 761.937422c-11.059893-2.877537-22.138206 2.877537-25.821085 13.536294l-40.192398 109.614513L556.819277 644.942825c68.072375-9.853415 128.349203-43.097564 172.628686-91.12951l128.752386 235.211023L754.045173 761.937422z" fill="#07c160" p-id="15172"></path></svg>