<?xml version="1.0" standalone="no"?><!DOCTYPE svg PUBLIC "-//W3C//DTD SVG 1.1//EN" "http://www.w3.org/Graphics/SVG/1.1/DTD/svg11.dtd"><svg t="1742093998349" class="icon" viewBox="0 0 1024 1024" version="1.1" xmlns="http://www.w3.org/2000/svg" p-id="18082" xmlns:xlink="http://www.w3.org/1999/xlink" width="256" height="256"><path d="M957.88032 853.78048l-211.1488-528.19968a30.5152 30.5152 0 0 0-57.07776 0L579.29728 601.66144l-178.83136-453.632a30.5152 30.5152 0 0 0-57.1904 0L65.01376 853.92384a32.768 32.768 0 0 0 3.34848 30.43328 30.60736 30.60736 0 0 0 25.25184 13.52704h835.72736a30.60736 30.60736 0 0 0 25.2928-13.58848 32.70656 32.70656 0 0 0 3.24608-30.5152z m-307.73248 3.15392H107.85792l264.01792-669.696 186.368 472.79104a20.48 20.48 0 0 0 12.51328 11.88864A20.40832 20.40832 0 0 0 599.51104 661.504l118.69184-296.96 196.82304 492.38016z" fill="#666666" p-id="18083"></path></svg>