<?xml version="1.0" standalone="no"?><!DOCTYPE svg PUBLIC "-//W3C//DTD SVG 1.1//EN" "http://www.w3.org/Graphics/SVG/1.1/DTD/svg11.dtd"><svg t="1742182287463" class="icon" viewBox="0 0 1024 1024" version="1.1" xmlns="http://www.w3.org/2000/svg" p-id="9090" xmlns:xlink="http://www.w3.org/1999/xlink" width="256" height="256"><path d="M588.8 160a32 32 0 0 1 64 0v704a32 32 0 0 1-64 0V160zM181.333333 341.333333a32 32 0 0 0-32 32v490.666667a32 32 0 0 0 64 0V373.333333A32 32 0 0 0 181.333333 341.333333z m219.733334 170.666667a32 32 0 0 0-32 32v320a32 32 0 0 0 64 0v-320A32 32 0 0 0 401.066667 512z m441.6-128a32 32 0 0 0-32 32v448a32 32 0 0 0 64 0V416a32 32 0 0 0-32-32z" p-id="9091"></path></svg>