<?xml version="1.0" standalone="no"?><!DOCTYPE svg PUBLIC "-//W3C//DTD SVG 1.1//EN" "http://www.w3.org/Graphics/SVG/1.1/DTD/svg11.dtd"><svg t="1743169641588" class="icon" viewBox="0 0 1024 1024" version="1.1" xmlns="http://www.w3.org/2000/svg" p-id="8170" xmlns:xlink="http://www.w3.org/1999/xlink" width="256" height="256"><path d="M128 597.333333c0-213.333333 170.666667-384 384-384 85.333333 0 170.666667 29.866667 238.933333 85.333334L810.666667 238.933333c21.333333 17.066667 42.666667 38.4 64 59.733334L810.666667 358.4c55.466667 68.266667 85.333333 153.6 85.333333 238.933333 0 213.333333-170.666667 384-384 384s-384-170.666667-384-384z m85.333333 0c0 166.4 132.266667 298.666667 298.666667 298.666667s298.666667-132.266667 298.666667-298.666667-132.266667-298.666667-298.666667-298.666666-298.666667 132.266667-298.666667 298.666666z m256 0v-170.666666c0-25.6 17.066667-42.666667 42.666667-42.666667s42.666667 17.066667 42.666667 42.666667v170.666666c0 25.6-17.066667 42.666667-42.666667 42.666667s-42.666667-17.066667-42.666667-42.666667zM426.666667 170.666667c-25.6 0-42.666667-17.066667-42.666667-42.666667s17.066667-42.666667 42.666667-42.666667h170.666666c25.6 0 42.666667 17.066667 42.666667 42.666667s-17.066667 42.666667-42.666667 42.666667h-170.666666z" p-id="8171" fill="#1296db"></path></svg>